<svg width="28" height="28" viewBox="0 0 28 28" fill="none" xmlns="http://www.w3.org/2000/svg">
<circle cx="13.8404" cy="13.8404" r="13.8404" fill="#873D8F"/>
<g clip-path="url(#clip0_1244_3795)">
<path d="M17.4404 8.17834L16.5515 7.02581C16.3744 6.79795 16.1478 6.61338 15.8888 6.48607C15.6299 6.35877 15.3453 6.29206 15.0567 6.29102H12.6259C12.3373 6.29206 12.0528 6.35877 11.7938 6.48607C11.5348 6.61338 11.3082 6.79795 11.1311 7.02581L10.2422 8.17834H17.4404Z" fill="white"/>
<path d="M13.8406 17.6149C15.2304 17.6149 16.3571 16.4882 16.3571 15.0985C16.3571 13.7087 15.2304 12.582 13.8406 12.582C12.4509 12.582 11.3242 13.7087 11.3242 15.0985C11.3242 16.4882 12.4509 17.6149 13.8406 17.6149Z" fill="white"/>
<path d="M18.2441 9.4375H9.43655C8.60261 9.4385 7.80311 9.77022 7.21343 10.3599C6.62374 10.9496 6.29201 11.7491 6.29102 12.583L6.29102 18.245C6.29201 19.0789 6.62374 19.8784 7.21343 20.4681C7.80311 21.0578 8.60261 21.3895 9.43655 21.3905H18.2441C19.078 21.3895 19.8775 21.0578 20.4672 20.4681C21.0569 19.8784 21.3886 19.0789 21.3896 18.245V12.583C21.3886 11.7491 21.0569 10.9496 20.4672 10.3599C19.8775 9.77022 19.078 9.4385 18.2441 9.4375ZM13.8403 18.8741C13.0938 18.8741 12.364 18.6527 11.7432 18.238C11.1225 17.8232 10.6387 17.2337 10.353 16.544C10.0673 15.8542 9.99254 15.0953 10.1382 14.3631C10.2838 13.6309 10.6433 12.9583 11.1712 12.4304C11.6991 11.9025 12.3717 11.543 13.1039 11.3974C13.8361 11.2517 14.5951 11.3265 15.2848 11.6122C15.9745 11.8978 16.564 12.3817 16.9788 13.0024C17.3936 13.6231 17.615 14.3529 17.615 15.0995C17.614 16.1003 17.2159 17.0598 16.5083 17.7674C15.8006 18.4751 14.8411 18.8731 13.8403 18.8741Z" fill="white"/>
</g>
<defs>
<clipPath id="clip0_1244_3795">
<rect width="15.0986" height="15.0986" fill="white" transform="translate(6.29102 6.29102)"/>
</clipPath>
</defs>
</svg>
