<svg width="40" height="40" viewBox="0 0 40 40" fill="none" xmlns="http://www.w3.org/2000/svg">
<path d="M1.42969 38.5713H32.8583" stroke="#873D8F" stroke-width="3" stroke-linecap="round" stroke-linejoin="round"/>
<path d="M18.8372 30.0478C19.1391 29.9935 19.4171 29.8479 19.6337 29.6306L38.7992 10.408C38.8003 10.4068 38.8015 10.4057 38.8026 10.4045C39.2094 10.0002 39.5323 9.51949 39.7529 8.99005C39.9741 8.45909 40.088 7.88959 40.088 7.31439C40.088 6.73919 39.9741 6.16969 39.7529 5.63873C39.5322 5.10887 39.2089 4.62786 38.8017 4.22333C38.8008 4.22249 38.8 4.22165 38.7992 4.22082L35.7793 1.20094C35.7785 1.2002 35.7778 1.19945 35.7771 1.1987C35.3725 0.791371 34.8914 0.468006 34.3614 0.247204C33.8304 0.0259972 33.2609 -0.0878906 32.6857 -0.0878906C32.1105 -0.0878906 31.541 0.0259976 31.0101 0.247204C30.4806 0.467799 29.9999 0.790768 29.5955 1.19757C29.5944 1.19869 29.5933 1.19982 29.5921 1.20094L10.3695 20.3664C10.1468 20.5885 9.9995 20.8749 9.94846 21.1852L8.51989 29.8709C8.4408 30.3518 8.60021 30.8411 8.94737 31.183C9.29452 31.525 9.78615 31.677 10.2657 31.5907L18.8372 30.0478Z" stroke="#873D8F" stroke-width="3" stroke-linecap="round" stroke-linejoin="round"/>
</svg>
