<svg width="40" height="40" viewBox="0 0 40 40" fill="none" xmlns="http://www.w3.org/2000/svg">
<path d="M21.4308 25.7144L12.8594 27.2572L14.2879 18.5715L30.6594 2.25725C30.925 1.98945 31.241 1.7769 31.5892 1.63184C31.9373 1.48679 32.3108 1.41211 32.6879 1.41211C33.0651 1.41211 33.4386 1.48679 33.7867 1.63184C34.1349 1.7769 34.4509 1.98945 34.7165 2.25725L37.7451 5.28582C38.0129 5.55143 38.2254 5.86743 38.3705 6.2156C38.5155 6.56377 38.5902 6.93721 38.5902 7.31439C38.5902 7.69157 38.5155 8.06501 38.3705 8.41318C38.2254 8.76135 38.0129 9.07735 37.7451 9.34296L21.4308 25.7144Z" stroke="#873D8F" stroke-width="2" stroke-linecap="round" stroke-linejoin="round"/>
<path d="M34.2868 27.1434V35.7148C34.2868 36.4726 33.9858 37.1993 33.45 37.7351C32.9142 38.271 32.1874 38.572 31.4297 38.572H4.28683C3.52907 38.572 2.80234 38.271 2.26653 37.7351C1.73071 37.1993 1.42969 36.4726 1.42969 35.7148V8.57199C1.42969 7.81423 1.73071 7.0875 2.26653 6.55168C2.80234 6.01586 3.52907 5.71484 4.28683 5.71484H12.8583" stroke="#873D8F" stroke-width="2" stroke-linecap="round" stroke-linejoin="round"/>
</svg>
