<svg width="43" height="43" viewBox="0 0 43 43" fill="none" xmlns="http://www.w3.org/2000/svg">
<path d="M0.605469 42.3936H35.9626" stroke="#873D8F" stroke-linecap="round" stroke-linejoin="round"/>
<path d="M19.8929 31.1432L10.25 32.8789L11.8571 23.1075L33.4893 1.53965C33.7881 1.23838 34.1436 0.999253 34.5353 0.836068C34.927 0.672883 35.3471 0.588867 35.7714 0.588867C36.1958 0.588867 36.6159 0.672883 37.0076 0.836068C37.3993 0.999253 37.7548 1.23838 38.0536 1.53965L41.4607 4.94679C41.762 5.2456 42.0011 5.6011 42.1643 5.99279C42.3275 6.38448 42.4115 6.80461 42.4115 7.22893C42.4115 7.65326 42.3275 8.07338 42.1643 8.46507C42.0011 8.85676 41.762 9.21227 41.4607 9.51108L19.8929 31.1432Z" stroke="#873D8F" stroke-linecap="round" stroke-linejoin="round"/>
</svg>
