<svg width="22" height="22" viewBox="0 0 22 22" fill="none" xmlns="http://www.w3.org/2000/svg">
<path d="M3.30078 17.875L17.0508 4.125M12.6508 9.57144C12.9931 9.94882 13.2008 10.4445 13.2008 10.9874C13.2008 12.1697 12.2158 13.1282 11.0008 13.1282C10.4406 13.1282 9.92926 12.9244 9.54085 12.5889M3.26521 13.1282C2.50784 11.9944 2.20078 11.0698 2.20078 11.0698C2.20078 11.0698 4.20335 4.675 11.0008 4.675C11.3824 4.675 11.7489 4.69516 12.1008 4.7332M6.05078 15.9037C7.31342 16.7091 8.9389 17.2787 11.0008 17.245C17.7136 17.1352 19.8008 11.0698 19.8008 11.0698C19.8008 11.0698 18.8311 7.97324 15.9508 6.08971" stroke="#9D9D9D" stroke-width="1.5" stroke-linecap="round"/>
</svg>
