<svg width="41" height="40" viewBox="0 0 41 40" fill="none" xmlns="http://www.w3.org/2000/svg">
<path d="M40.9634 20.0007C40.9634 30.1019 33.4779 38.4529 23.7537 39.808C22.8445 39.9341 21.9142 40 20.97 40C19.88 40 18.8097 39.9131 17.7673 39.745C8.24766 38.2118 0.976562 29.9548 0.976562 20.0007C0.976562 8.95491 9.92884 0 20.9714 0C32.0139 0 40.9662 8.95491 40.9662 20.0007H40.9634Z" fill="#873D8F"/>
<path d="M23.7526 16.0592V20.4162H29.1407L28.2875 26.2852H23.7526V39.8073C22.8433 39.9334 21.9131 39.9993 20.9688 39.9993C19.8788 39.9993 18.8085 39.9124 17.7662 39.7442V26.2852H12.7969V20.4162H17.7662V15.0853C17.7662 11.778 20.4462 9.0957 23.754 9.0957V9.09851C23.7638 9.09851 23.7722 9.0957 23.782 9.0957H29.1421V14.1716H25.6397C24.5987 14.1716 23.754 15.0166 23.754 16.0578L23.7526 16.0592Z" fill="white"/>
</svg>
