<svg width="45" height="39" viewBox="0 0 45 39" fill="none" xmlns="http://www.w3.org/2000/svg">
<path d="M22.5 38.5L41.1746 19.8525C43.3188 17.7113 44.5 14.8642 44.5 11.8365C44.5 8.80835 43.3188 5.96177 41.1746 3.82061C39.0303 1.67945 36.1796 0.5 33.147 0.5C30.1144 0.5 27.2637 1.67945 25.1195 3.82061L22.5 6.43628L19.8805 3.82061C17.7363 1.67945 14.8851 0.5 11.853 0.5C8.8204 0.5 5.96969 1.67945 3.82542 3.82061C1.68066 5.96177 0.5 8.80835 0.5 11.8365C0.5 14.8647 1.68066 17.7113 3.82542 19.8525L22.5 38.5ZM20.9531 10.5469C23.4631 10.5469 20.7248 19.7748 22.5 21.5469C24.2752 23.319 42.5444 9.33022 42.5444 11.8365C42.5444 14.3429 42.9492 8.77429 41.1746 10.5469L22.5 6.43628L6.45312 19.0469C7 19.5 8.95312 20.9782 8.95312 18.4719C8.95312 15.9656 19.178 23.3195 20.9531 21.5469C22.7283 19.7748 9.34253 15.7234 11.853 15.7234C14.3629 15.7234 16.7228 16.6998 18.498 18.4719L22.5 9.19792L26.5025 5.20118C28.2772 3.42909 18.4432 10.5469 20.9531 10.5469Z" fill="#F53737"/>
</svg>
