<svg width="28" height="15" viewBox="0 0 28 15" fill="none" xmlns="http://www.w3.org/2000/svg">
<g id="Frame" clip-path="url(#clip0_2755_8504)">
<g id="Group">
<path id="Vector" d="M20.4733 4.09443C21.4602 4.09443 22.4104 4.10488 23.3599 4.09025C23.9033 4.0819 24.2727 4.30473 24.5326 4.78313C25.2242 6.05399 25.9318 7.3165 26.6381 8.5797C26.8931 9.03651 27.0297 9.5163 27.0206 10.0448C27.0082 10.7656 27.0193 11.487 27.0172 12.2077C27.0158 12.7126 26.7303 13.0274 26.2312 12.9918C25.7835 12.9605 25.5347 13.0413 25.3559 13.5336C25.0378 14.411 24.0994 14.9277 23.1818 14.872C22.2309 14.8142 21.4138 14.1798 21.1386 13.2523C21.0756 13.0399 20.982 12.9974 20.7817 12.9981C18.4641 13.0044 16.1465 13.0037 13.8289 12.9974C13.639 12.9967 13.5496 13.0315 13.4886 13.2391C13.1975 14.2321 12.2917 14.888 11.2736 14.8748C10.277 14.8623 9.40232 14.1784 9.11609 13.1896C9.09945 13.1318 9.07866 13.0754 9.05371 13.0016C8.64619 13.0016 8.24075 13.0016 7.83531 13.0016C7.07433 13.0016 6.31334 13.003 5.55236 13.0009C5.21207 12.9995 5.06445 12.8519 5.06306 12.5079C5.06029 11.7085 5.06168 10.909 5.06168 10.1103C5.06168 10.0163 5.06168 9.92228 5.06168 9.79415C4.93831 9.79415 4.83643 9.79415 4.73524 9.79415C3.84466 9.79415 2.95407 9.79485 2.0628 9.79346C1.96785 9.79346 1.87151 9.79415 1.77864 9.77883C1.57488 9.74541 1.45637 9.61728 1.43627 9.41185C1.41617 9.20573 1.50973 9.05462 1.70379 8.98637C1.79874 8.95295 1.90616 8.94668 2.00804 8.94598C3.65961 8.9439 5.31118 8.94459 6.96344 8.94459C7.02373 8.94459 7.08542 8.94181 7.14502 8.95016C7.37026 8.9822 7.53521 9.15977 7.53799 9.36728C7.54145 9.59082 7.37719 9.77326 7.12769 9.7851C6.79987 9.80042 6.47067 9.79067 6.14216 9.79415C6.06592 9.79485 5.99038 9.80321 5.90513 9.80878C5.90513 10.595 5.90513 11.3645 5.90513 12.1486C5.98275 12.1541 6.04929 12.1639 6.11582 12.1639C7.02373 12.1646 7.93164 12.1625 8.84025 12.1667C8.98233 12.1674 9.07035 12.1506 9.11955 11.9821C9.42381 10.9438 10.2784 10.2948 11.3166 10.2948C12.3506 10.2948 13.1968 10.9487 13.5219 11.9842C13.5448 12.0573 13.648 12.1569 13.7139 12.1569C15.651 12.1646 17.5881 12.1618 19.5252 12.159C19.5411 12.159 19.5564 12.1479 19.6014 12.1311C19.6014 8.52538 19.6014 4.90918 19.6014 1.27904C15.0452 1.27904 10.4904 1.27904 5.91414 1.27904C5.91414 1.68572 5.91414 2.09657 5.91414 2.52971C6.00493 2.53389 6.09642 2.54224 6.18859 2.54224C6.84562 2.54363 7.50333 2.54224 8.16035 2.54363C8.24629 2.54363 8.33501 2.54503 8.41748 2.56383C8.62679 2.61327 8.74738 2.74628 8.74876 2.96842C8.75015 3.19195 8.62748 3.32495 8.42095 3.37648C8.33016 3.39877 8.23243 3.39737 8.13818 3.39737C6.58156 3.39877 5.02494 3.39807 3.46833 3.39807C3.451 3.39807 3.43367 3.39807 3.41635 3.39807C3.05803 3.39459 2.84596 3.23443 2.84665 2.96842C2.84734 2.70171 3.05665 2.54363 3.41843 2.54224C3.95416 2.54015 4.48921 2.54155 5.06168 2.54155C5.06168 2.12651 5.06098 1.73028 5.06168 1.33405C5.06445 0.689223 5.33474 0.411375 5.97513 0.410679C10.4981 0.409982 15.021 0.409982 19.5439 0.410679C20.1926 0.410679 20.4726 0.69758 20.4733 1.35216C20.4733 2.25464 20.4733 3.15643 20.4733 4.09443ZM26.1883 12.1527C26.1883 11.4452 26.1848 10.76 26.1897 10.0755C26.1924 9.69248 26.0996 9.34013 25.9145 9.00727C25.2062 7.7364 24.4986 6.46554 23.7979 5.18981C23.6974 5.00667 23.5747 4.93216 23.3661 4.93424C22.4846 4.9433 21.603 4.93773 20.7207 4.93842C20.6452 4.93842 20.5703 4.94817 20.4941 4.95305C20.4941 7.36524 20.4941 9.75725 20.4941 12.1472C21.0104 12.2022 21.0104 12.2022 21.1837 11.7544C21.5261 10.8666 22.3626 10.2934 23.3148 10.2941C24.2588 10.2948 25.1057 10.8798 25.4412 11.7642C25.5964 12.1729 25.5964 12.1729 26.0233 12.1639C26.0656 12.1625 26.1079 12.1583 26.1883 12.1527ZM9.88816 12.565C9.88885 13.3895 10.5043 14.0218 11.3131 14.0294C12.0942 14.0371 12.747 13.3846 12.7484 12.5949C12.7498 11.7851 12.1115 11.1305 11.3159 11.127C10.5306 11.1242 9.88747 11.7718 9.88816 12.565ZM24.7384 12.5928C24.7384 11.7781 24.1063 11.1291 23.31 11.127C22.5268 11.1249 21.8788 11.7774 21.8788 12.5664C21.8788 13.3853 22.5026 14.0225 23.3107 14.0294C24.0945 14.0357 24.7377 13.3888 24.7384 12.5928Z" fill="#873D8F"/>
<path id="Vector_2" d="M5.06292 7.06108C5.06292 6.35566 5.06292 5.68089 5.06292 5.00542C5.06292 4.90096 5.06014 4.7972 5.0643 4.69275C5.07539 4.42883 5.24173 4.25195 5.47598 4.25195C5.70677 4.25195 5.88974 4.4344 5.89182 4.69275C5.89736 5.37867 5.8939 6.06458 5.8939 6.7505C5.8939 6.84381 5.8939 6.93782 5.8939 7.06108C6.00687 7.06108 6.09904 7.06108 6.19122 7.06108C7.87606 7.06108 9.56158 7.06038 11.2464 7.06177C11.6304 7.06247 11.8494 7.37514 11.6803 7.67666C11.5722 7.86955 11.3927 7.89601 11.1903 7.89532C8.97802 7.89184 6.76577 7.89323 4.55352 7.89323C4.36362 7.89323 4.17302 7.89741 3.98313 7.89184C3.71699 7.88348 3.55273 7.71983 3.55273 7.47472C3.55273 7.2289 3.71768 7.06595 3.98451 7.06247C4.33035 7.05759 4.67549 7.06108 5.06292 7.06108Z" fill="#873D8F"/>
<path id="Vector_3" d="M2.29642 5.6983C1.84801 5.6983 1.39891 5.70108 0.950494 5.6976C0.617131 5.69481 0.500004 5.582 0.500004 5.27769C0.499311 4.95597 0.593567 4.85779 0.942177 4.85639C1.84801 4.85222 2.75384 4.85291 3.65967 4.85639C3.96947 4.85779 4.14759 5.01516 4.14898 5.26934C4.15036 5.53256 3.96185 5.69551 3.64304 5.6976C3.19394 5.70038 2.74483 5.6983 2.29642 5.6983Z" fill="#873D8F"/>
</g>
</g>
<defs>
<clipPath id="clip0_2755_8504">
<rect width="26.5214" height="14.4662" fill="white" transform="translate(0.5 0.410156)"/>
</clipPath>
</defs>
</svg>
