<svg width="20" height="20" viewBox="0 0 20 20" fill="none" xmlns="http://www.w3.org/2000/svg">
<g clip-path="url(#clip0_3693_9237)">
<path d="M4.39016 8.1375C4.78006 6.95787 5.53254 5.93151 6.54025 5.20483C7.54797 4.47815 8.75943 4.08828 10.0018 4.09083C11.4102 4.09083 12.6835 4.59083 13.6835 5.40917L16.5935 2.5C14.8202 0.954167 12.5477 0 10.0018 0C6.06016 0 2.66682 2.24833 1.03516 5.54167L4.39016 8.1375Z" fill="#EA4335"/>
<path d="M13.3671 15.0115C12.4587 15.5973 11.3054 15.9098 10.0004 15.9098C8.76298 15.9123 7.55609 15.5256 6.55061 14.8043C5.54514 14.0829 4.79204 13.0636 4.39792 11.8906L1.03125 14.4465C1.85729 16.1184 3.13564 17.5251 4.7211 18.5069C6.30656 19.4887 8.13559 20.0062 10.0004 20.0006C12.4446 20.0006 14.7796 19.1315 16.5287 17.5006L13.3679 15.0115H13.3671Z" fill="#34A853"/>
<path d="M16.5283 17.5C18.3575 15.7933 19.545 13.2533 19.545 9.99997C19.545 9.40831 19.4542 8.77247 19.3183 8.18164H10V12.0458H15.3633C15.0992 13.345 14.3883 14.3508 13.3675 15.0108L16.5283 17.5Z" fill="#4A90E2"/>
<path d="M4.3976 11.8893C4.19373 11.2801 4.09016 10.6418 4.09093 9.99935C4.09093 9.34768 4.1951 8.72185 4.38843 8.13685L1.03343 5.54102C0.347079 6.92659 -0.00673329 8.45311 9.70454e-05 9.99935C9.70454e-05 11.5993 0.37093 13.1077 1.03093 14.4452L4.3976 11.8893Z" fill="#FBBC05"/>
</g>
<defs>
<clipPath id="clip0_3693_9237">
<rect width="20" height="20" fill="white"/>
</clipPath>
</defs>
</svg>
