<svg width="20" height="20" viewBox="0 0 20 20" fill="none" xmlns="http://www.w3.org/2000/svg">
<g id="Group">
<path id="Vector" d="M17.4453 0.00540903C17.8795 0.0973625 18.6142 0.313724 18.6086 1.44962C18.6086 1.53616 18.6086 1.6173 18.6086 1.71466C18.7144 1.7363 18.809 1.74712 18.9036 1.77416C19.3266 1.88775 19.6383 2.23393 19.655 2.66124C19.6773 3.15887 19.6829 3.66191 19.6606 4.16495C19.6383 4.70586 19.3044 5.04662 18.7478 5.13858C18.7088 5.14399 18.6698 5.1548 18.6309 5.16562C18.6086 5.3928 18.6086 5.62539 18.5585 5.84175C18.4194 6.43674 17.885 6.84783 17.2394 6.88028C17.1837 6.88569 17.1336 6.88028 17.0779 6.88028C12.8923 6.88028 8.70101 6.88028 4.51533 6.88028C3.75278 6.88028 3.21287 6.50165 3.04033 5.83093C2.99023 5.62539 2.9958 5.40903 2.97353 5.16562C2.63957 5.12235 2.33343 5.00876 2.12192 4.71667C1.91041 4.42999 1.93268 4.10545 1.92711 3.78091C1.49296 3.79714 1.23692 4.02432 1.19239 4.41918C1.18126 4.4949 1.17569 4.57604 1.17569 4.65176C1.17569 5.44689 1.19239 6.24202 1.17013 7.03174C1.15343 7.6105 1.44286 7.95127 2.09966 7.95127C4.59882 7.93505 7.09799 7.94586 9.59715 7.94586C10.215 7.94586 10.7104 8.16763 10.9887 8.73017C11.0777 8.90867 11.1056 9.11421 11.1278 9.30894C11.1501 9.53612 11.1334 9.7633 11.1334 10.0013C11.3171 10.0121 11.4896 10.0229 11.6566 10.0392C12.1241 10.0932 12.4915 10.4557 12.5416 10.91C12.5527 11.0128 12.5583 11.1156 12.5583 11.2237C12.5583 13.5226 12.5583 15.8214 12.5583 18.1202C12.5583 18.5908 12.4637 19.0236 12.1408 19.3914C11.651 19.9539 10.9219 20.1432 10.176 19.889C9.53036 19.6726 9.06281 19.0398 9.04055 18.3474C9.02941 18.0391 9.03498 17.7362 9.03498 17.4279C9.03498 15.3508 9.05168 13.2738 9.02385 11.1967C9.01828 10.5584 9.40791 9.97966 10.2372 10.0121C10.2985 10.0121 10.3597 10.0121 10.4321 10.0121C10.4321 9.70921 10.4655 9.41712 10.4209 9.13585C10.3764 8.85999 10.1705 8.68149 9.88102 8.62199C9.7697 8.60036 9.65281 8.59495 9.54149 8.59495C7.02006 8.59495 4.5042 8.59495 1.98277 8.59495C1.24249 8.59495 0.724842 8.22173 0.541161 7.55641C0.513331 7.45905 0.502199 7.35087 0.502199 7.2481C0.502199 6.28529 0.491067 5.32248 0.518897 4.35968C0.535595 3.69978 1.08107 3.18592 1.7657 3.12101C1.81022 3.1156 1.85475 3.10478 1.92711 3.09396C1.86589 2.34211 2.13306 1.81743 2.97353 1.70925C2.99023 1.48748 2.9791 1.27112 3.02919 1.06558C3.15165 0.562539 3.47448 0.22177 3.99212 0.0594993C4.04222 0.0432722 4.08675 0.0216361 4.13684 0C8.573 0.00540903 13.0091 0.00540903 17.4453 0.00540903ZM10.7994 0.659902C8.69545 0.659902 6.59148 0.659902 4.4875 0.659902C3.95316 0.659902 3.66929 0.935762 3.66372 1.45503C3.65816 2.77483 3.65816 4.10004 3.66372 5.41985C3.66372 5.94452 3.95873 6.22038 4.5042 6.22038C8.70658 6.22038 12.9034 6.22038 17.1058 6.22038C17.6512 6.22038 17.9351 5.94452 17.9351 5.41444C17.9351 4.12168 17.9184 2.82351 17.9407 1.53076C17.9518 1.02231 17.6568 0.649083 17.0501 0.654492C14.9628 0.676129 12.8811 0.659902 10.7994 0.659902ZM9.71961 12.0784C9.71961 12.1811 9.71961 12.2569 9.71961 12.3326C9.71961 13.9012 9.71961 15.4698 9.71961 17.0384C9.71961 17.482 9.71404 17.9255 9.72517 18.3637C9.74744 19.0236 10.4321 19.4995 11.0833 19.3102C11.6065 19.1588 11.8848 18.7693 11.8848 18.1689C11.8848 16.2055 11.8848 14.242 11.8848 12.2731C11.8848 12.2082 11.8792 12.1487 11.8737 12.073C11.1557 12.0784 10.4488 12.0784 9.71961 12.0784ZM9.73074 11.3968C10.4599 11.3968 11.1668 11.3968 11.8792 11.3968C11.8848 11.3427 11.8904 11.2941 11.8904 11.2508C11.8959 10.791 11.779 10.672 11.3059 10.672C10.9775 10.672 10.6491 10.672 10.3207 10.672C9.81423 10.672 9.71404 10.7748 9.72517 11.2724C9.71961 11.3103 9.72517 11.3481 9.73074 11.3968ZM18.6197 2.40161C18.6197 3.09396 18.6197 3.78632 18.6197 4.48409C18.8591 4.45704 18.976 4.38131 18.9815 4.17577C18.9982 3.68896 18.9982 3.20215 18.9815 2.71533C18.976 2.50438 18.8535 2.42324 18.6197 2.40161ZM2.9791 2.40161C2.72306 2.42865 2.60617 2.53683 2.60617 2.77483C2.60061 3.21837 2.60061 3.6565 2.60617 4.10004C2.60617 4.33804 2.71193 4.44081 2.9791 4.47868C2.9791 3.78632 2.9791 3.09396 2.9791 2.40161Z" fill="#873D8F"/>
<path id="Vector_2" d="M10.7929 17.9785C10.9711 17.9785 11.1269 18.1246 11.1269 18.2976C11.1269 18.4707 10.9766 18.6276 10.7985 18.6276C10.6315 18.6276 10.459 18.4707 10.459 18.3031C10.459 18.1354 10.6204 17.9785 10.7929 17.9785Z" fill="#873D8F"/>
</g>
</svg>
