<svg width="25" height="24" viewBox="0 0 25 24" fill="none" xmlns="http://www.w3.org/2000/svg">
<path d="M18.5728 0H6.19934C2.78095 0 0 2.78177 0 6.20117V17.5244C0 20.9438 2.78095 23.7256 6.19934 23.7256H18.5728C21.9912 23.7256 24.7722 20.9438 24.7722 17.5244V6.20117C24.7722 2.78177 21.9912 0 18.5728 0ZM2.18693 6.20117C2.18693 3.98837 3.98719 2.18757 6.19934 2.18757H18.5728C20.785 2.18757 22.5852 3.98837 22.5852 6.20117V17.5244C22.5852 19.7372 20.785 21.538 18.5728 21.538H6.19934C3.98719 21.538 2.18693 19.7372 2.18693 17.5244V6.20117Z" fill="#000001"/>
<path d="M12.3875 17.63C15.5664 17.63 18.154 15.0431 18.154 11.8619C18.154 8.68072 15.5678 6.09375 12.3875 6.09375C9.20731 6.09375 6.62109 8.68072 6.62109 11.8619C6.62109 15.0431 9.20731 17.63 12.3875 17.63ZM12.3875 8.28273C14.3615 8.28273 15.967 9.88872 15.967 11.8633C15.967 13.8379 14.3615 15.4438 12.3875 15.4438C10.4136 15.4438 8.80803 13.8379 8.80803 11.8633C8.80803 9.88872 10.4136 8.28273 12.3875 8.28273Z" fill="#000001"/>
<path d="M18.6865 7.02432C19.5425 7.02432 20.2402 6.32782 20.2402 5.47017C20.2402 4.61251 19.5439 3.91602 18.6865 3.91602C17.8291 3.91602 17.1328 4.61251 17.1328 5.47017C17.1328 6.32782 17.8291 7.02432 18.6865 7.02432Z" fill="#000001"/>
</svg>
