<svg width="41" height="40" viewBox="0 0 41 40" fill="none" xmlns="http://www.w3.org/2000/svg">
<path d="M21.0279 0H20.9369C9.91957 0 0.988281 8.93392 0.988281 19.9545V20.0455C0.988281 31.0661 9.91957 40 20.9369 40H21.0279C32.0452 40 40.9765 31.0661 40.9765 20.0455V19.9545C40.9765 8.93392 32.0452 0 21.0279 0Z" fill="#873D8F"/>
<path d="M27.1685 8.13867H14.795C11.3767 8.13867 8.5957 10.9204 8.5957 14.3398V25.6631C8.5957 29.0825 11.3767 31.8643 14.795 31.8643H27.1685C30.5869 31.8643 33.3679 29.0825 33.3679 25.6631V14.3398C33.3679 10.9204 30.5869 8.13867 27.1685 8.13867ZM10.7826 14.3398C10.7826 12.127 12.5829 10.3262 14.795 10.3262H27.1685C29.3807 10.3262 31.1809 12.127 31.1809 14.3398V25.6631C31.1809 27.8759 29.3807 29.6767 27.1685 29.6767H14.795C12.5829 29.6767 10.7826 27.8759 10.7826 25.6631V14.3398Z" fill="white"/>
<path d="M20.9813 25.7687C24.1601 25.7687 26.7477 23.1817 26.7477 20.0006C26.7477 16.8194 24.1615 14.2324 20.9813 14.2324C17.8011 14.2324 15.2148 16.8194 15.2148 20.0006C15.2148 23.1817 17.8011 25.7687 20.9813 25.7687ZM20.9813 16.4214C22.9553 16.4214 24.5608 18.0274 24.5608 20.002C24.5608 21.9765 22.9553 23.5825 20.9813 23.5825C19.0073 23.5825 17.4018 21.9765 17.4018 20.002C17.4018 18.0274 19.0073 16.4214 20.9813 16.4214Z" fill="white"/>
<path d="M27.2822 15.163C28.1382 15.163 28.8359 14.4665 28.8359 13.6088C28.8359 12.7512 28.1396 12.0547 27.2822 12.0547C26.4248 12.0547 25.7285 12.7512 25.7285 13.6088C25.7285 14.4665 26.4248 15.163 27.2822 15.163Z" fill="white"/>
</svg>
