<svg width="40" height="40" viewBox="0 0 40 40" fill="none" xmlns="http://www.w3.org/2000/svg">
<path d="M20.0396 0H19.9486C8.9313 0 0 8.93391 0 19.9545V20.0455C0 31.0661 8.9313 40 19.9486 40H20.0396C31.0569 40 39.9882 31.0661 39.9882 20.0455V19.9545C39.9882 8.93391 31.0569 0 20.0396 0Z" fill="#873D8F"/>
<path d="M9.53483 13.2943C9.00806 12.8052 8.74609 12.1998 8.74609 11.4795C8.74609 10.7592 9.00946 10.1272 9.53483 9.63667C10.0616 9.14759 10.7397 8.90234 11.5705 8.90234C12.4012 8.90234 13.0527 9.14759 13.5781 9.63667C14.1048 10.1258 14.3668 10.741 14.3668 11.4795C14.3668 12.218 14.1034 12.8052 13.5781 13.2943C13.0513 13.7834 12.383 14.0286 11.5705 14.0286C10.7579 14.0286 10.0616 13.7834 9.53483 13.2943ZM13.9241 16.0999V31.0948H9.18739V16.0999H13.9241Z" fill="#FEFFFC"/>
<path d="M29.6911 17.5821C30.7236 18.7032 31.2392 20.2419 31.2392 22.2011V30.8308H26.7407V22.8093C26.7407 21.8213 26.4843 21.0533 25.9729 20.5068C25.4616 19.9602 24.7723 19.6856 23.9093 19.6856C23.0463 19.6856 22.357 19.9588 21.8456 20.5068C21.3343 21.0533 21.0779 21.8213 21.0779 22.8093V30.8308H16.5527V16.0587H21.0779V18.0179C21.536 17.3648 22.1539 16.8491 22.93 16.4694C23.7061 16.0896 24.579 15.9004 25.5498 15.9004C27.2786 15.9004 28.66 16.4609 29.6911 17.5807V17.5821Z" fill="#FEFFFC"/>
</svg>
