<svg width="43" height="43" viewBox="0 0 43 43" fill="none" xmlns="http://www.w3.org/2000/svg">
<path d="M26.8751 8.95889C26.6393 8.95753 26.4056 9.00272 26.1873 9.09188C25.969 9.18105 25.7704 9.31242 25.603 9.47848L14.853 20.2285C14.5193 20.5642 14.332 21.0183 14.332 21.4916C14.332 21.9649 14.5193 22.419 14.853 22.7547L25.603 33.5047C25.9458 33.7983 26.3867 33.9516 26.8376 33.9342C27.2885 33.9168 27.7163 33.7299 28.0353 33.4108C28.3544 33.0917 28.5414 32.664 28.5588 32.213C28.5762 31.7621 28.4228 31.3212 28.1293 30.9785L18.6514 21.5006L28.1293 12.0226C28.3809 11.7731 28.5528 11.4546 28.6234 11.1073C28.694 10.7601 28.66 10.3997 28.5257 10.0718C28.3915 9.74385 28.163 9.46309 27.8692 9.26499C27.5754 9.0669 27.2295 8.96038 26.8751 8.95889Z" fill="#873D8F"/>
</svg>
