<svg width="40" height="39" viewBox="0 0 40 39" fill="none" xmlns="http://www.w3.org/2000/svg">
<path d="M17.3804 1.6938C18.5248 -0.356827 21.4752 -0.35683 22.6196 1.6938L26.8988 9.36107C27.328 10.1301 28.0734 10.6717 28.9374 10.8422L37.5518 12.5426C39.8557 12.9974 40.7674 15.8033 39.1708 17.5255L33.2011 23.9645C32.6024 24.6103 32.3176 25.4867 32.4224 26.3611L33.4672 35.0793C33.7467 37.411 31.3598 39.1451 29.2286 38.1588L21.26 34.4711C20.4607 34.1012 19.5393 34.1012 18.74 34.4711L10.7714 38.1588C8.64021 39.1451 6.25334 37.411 6.53277 35.0793L7.57758 26.3611C7.68238 25.4867 7.39764 24.6103 6.79888 23.9645L0.829203 17.5255C-0.767401 15.8033 0.1443 12.9974 2.44822 12.5426L11.0626 10.8422C11.9266 10.6717 12.672 10.1301 13.1012 9.36107L17.3804 1.6938Z" fill="#FFCF55"/>
</svg>
