<svg width="87" height="86" viewBox="0 0 87 86" fill="none" xmlns="http://www.w3.org/2000/svg">
<rect x="0.765625" y="0.0117188" width="85.7528" height="85.7528" rx="7" fill="#8CCFAF"/>
<path d="M26.3705 30.4526L26.3706 30.4523C28.3241 24.9321 33.597 21.2627 39.5732 21.3508L39.5733 21.3508C45.347 21.4389 50.5015 25.3296 52.2637 30.9073L52.2637 30.9074C54.0245 36.4927 52.0223 43.0997 46.2609 46.6896C46.4229 46.7591 46.5717 46.82 46.7201 46.873L46.7233 46.8741L46.7232 46.8742C52.4762 49.1479 56.3944 54.897 56.3797 61.0153C56.3797 61.376 56.3159 61.6698 56.1676 61.9061C56.0187 62.1436 55.7915 62.3117 55.4863 62.4338L26.3705 30.4526ZM26.3705 30.4526C24.3773 36.1384 26.3328 43.0769 32.2359 46.7026C32.2294 46.7052 32.223 46.7079 32.2166 46.7106C31.9827 46.8077 31.7795 46.8921 31.5667 46.9593L31.5666 46.9589L31.5589 46.9621C25.9089 49.2797 22.049 55.014 22.1077 61.016L22.1077 61.0168C22.123 61.8753 22.6807 62.5273 23.4741 62.5431L23.4742 62.5432C23.8939 62.5509 24.2491 62.4027 24.5064 62.1376C24.7627 61.8735 24.9158 61.5001 24.9463 61.0658L24.9464 61.0645L24.9475 61.0461C24.9909 60.2932 25.0348 59.5333 25.1637 58.8029L25.1639 58.8021C26.0458 53.5709 30.7041 49.1904 35.9647 48.7135C37.5882 48.5794 39.212 48.5939 40.8411 48.6083C40.9766 48.6095 41.112 48.6107 41.2476 48.6119L41.2478 48.6119C43.6199 48.6263 45.8168 49.2766 47.7827 50.5914L47.7828 50.5915C51.4732 53.0506 53.3819 56.5328 53.5701 60.9756C53.5855 61.3585 53.7227 61.7704 53.938 62.0779L53.938 62.078M26.3705 30.4526L53.938 62.078M53.938 62.078L53.9396 62.0802M53.938 62.078L53.9396 62.0802M53.9396 62.0802C54.3088 62.5775 54.9158 62.6648 55.4858 62.434L53.9396 62.0802ZM39.2221 45.7888C33.2705 45.7744 28.431 40.9227 28.431 34.974C28.431 28.9966 33.2991 24.1594 39.2799 24.1738C45.2315 24.1882 50.071 29.0399 50.071 34.9886C50.071 40.9516 45.2028 45.8033 39.2221 45.7888Z" fill="white" stroke="white" stroke-width="0.2"/>
<path d="M57.7654 49.8806L57.7652 49.8808C57.4193 50.2188 57.0059 50.3739 56.6077 50.3462C56.2092 50.3184 55.8365 50.1082 55.5726 49.7359L55.5724 49.7356C55.37 49.4478 55.2822 49.125 55.3179 48.8001C55.3535 48.4758 55.5113 48.1571 55.7867 47.8742L55.7869 47.874C56.2437 47.4077 56.7073 46.9475 57.1725 46.4857C57.4057 46.2543 57.6392 46.0225 57.8725 45.7894C57.9324 45.7295 57.9893 45.6695 58.0514 45.6041C58.0561 45.5991 58.0609 45.5941 58.0657 45.5891C58.1144 45.5377 58.1664 45.483 58.2249 45.4233C58.0151 45.2139 57.8051 45.0054 57.5954 44.7973C57.1303 44.3356 56.6667 43.8756 56.2101 43.4094C56.1767 43.376 56.1423 43.3423 56.1074 43.3079C55.9639 43.1669 55.8113 43.0169 55.6787 42.8484C55.1808 42.2562 55.2109 41.4695 55.7439 40.9367C56.275 40.4059 57.0801 40.3558 57.647 40.8907C58.2391 41.4387 58.807 42.0118 59.3731 42.5832C59.5615 42.7732 59.7496 42.9631 59.9384 43.1518C60.0089 43.2223 60.0787 43.2849 60.1711 43.3679C60.1894 43.3843 60.2085 43.4015 60.2287 43.4197L62.2463 41.4031C62.2798 41.3695 62.3138 41.3351 62.3482 41.3001C62.4894 41.1565 62.6397 41.0038 62.8084 40.8712C63.4147 40.3746 64.1868 40.4034 64.7204 40.9367C65.2515 41.4676 65.3016 42.2722 64.7666 42.8389C64.7665 42.8391 64.7663 42.8392 64.7661 42.8394L64.6934 42.7707C64.0374 43.4848 63.3522 44.1551 62.667 44.8254L57.7654 49.8806ZM57.7654 49.8806C58.2981 49.3575 58.8196 48.8217 59.3742 48.2518C59.6593 47.9588 59.9532 47.6568 60.262 47.3429M57.7654 49.8806L60.262 47.3429M60.262 47.3429C60.2784 47.3676 60.2942 47.3916 60.3095 47.4151L60.3147 47.423C60.3478 47.4736 60.3797 47.5224 60.4114 47.5668C60.4748 47.6554 60.5438 47.7361 60.6371 47.7909C61.3332 48.5011 62.0311 49.213 62.7582 49.8961C63.3379 50.4593 64.1575 50.427 64.7048 49.8956L64.7048 49.8956L64.7058 49.8945C65.2378 49.3628 65.2849 48.5755 64.7845 47.9815L64.7839 47.9809C64.6494 47.824 64.4971 47.6746 64.3506 47.5309C64.3029 47.4841 64.2558 47.438 64.2101 47.3923L64.2094 47.3916C63.5485 46.7451 62.9012 46.0986 62.1622 45.36C62.2034 45.3287 62.2438 45.2984 62.2834 45.2687C62.4539 45.141 62.6084 45.0253 62.7376 44.8962L60.262 47.3429Z" fill="white" stroke="white" stroke-width="0.2"/>
</svg>
