<svg width="87" height="87" viewBox="0 0 87 87" fill="none" xmlns="http://www.w3.org/2000/svg">
<rect x="0.765625" y="0.640625" width="85.7528" height="85.7528" rx="7" fill="#CABB96"/>
<path d="M43.7865 46.6211C48.8764 46.6211 53.0026 42.6028 53.0026 37.646C53.0026 32.6892 48.8764 28.6709 43.7865 28.6709C38.6965 28.6709 34.5703 32.6892 34.5703 37.646C34.5703 42.6028 38.6965 46.6211 43.7865 46.6211Z" stroke="white" stroke-width="1.3" stroke-linecap="round" stroke-linejoin="round"/>
<path d="M25.7188 66.3665C26.5648 62.3087 28.8254 58.6605 32.1175 56.0401C35.4096 53.4197 39.5306 51.9883 43.7824 51.9883C48.0342 51.9883 52.1553 53.4197 55.4473 56.0401C58.7394 58.6605 61 62.3087 61.8461 66.3665" stroke="white" stroke-width="1.3" stroke-linecap="round" stroke-linejoin="round"/>
<path d="M64.0579 19.6963H23.5068C21.4708 19.6963 19.8203 21.3036 19.8203 23.2863V62.7769C19.8203 64.7596 21.4708 66.3669 23.5068 66.3669H64.0579C66.0938 66.3669 67.7443 64.7596 67.7443 62.7769V23.2863C67.7443 21.3036 66.0938 19.6963 64.0579 19.6963Z" stroke="white" stroke-width="1.3" stroke-linecap="round" stroke-linejoin="round"/>
</svg>
