<svg width="60" height="60" viewBox="0 0 60 60" fill="none" xmlns="http://www.w3.org/2000/svg">
<rect width="60" height="60" rx="30" fill="#873D8F"/>
<path d="M16.5877 34.6598H19.9173C20.0122 34.6598 20.0975 34.6886 20.1753 34.7589L25.3234 39.3667C25.9323 39.9107 26.4017 40.1641 27.0169 40.1641C27.8724 40.1641 28.5289 39.5289 28.5289 38.6639V20.7612C28.5289 19.8961 27.8724 19.2012 26.9977 19.2012C26.3909 19.2012 25.977 19.4695 25.3234 20.0583L20.1753 24.6256C20.0954 24.6938 20.0122 24.7247 19.9173 24.7247H16.5877C14.8695 24.7247 14 25.6261 14 27.4455V31.9507C14 33.768 14.8791 34.6598 16.5877 34.6598ZM16.7837 32.5966C16.3965 32.5966 16.2099 32.4079 16.2099 32.0207V27.3734C16.2099 26.9787 16.3965 26.79 16.7837 26.79H20.4493C20.7666 26.79 21.0073 26.7251 21.2769 26.479L25.9695 22.2075C26.0239 22.151 26.0825 22.1201 26.1624 22.1201C26.2466 22.1201 26.319 22.1808 26.319 22.2883V37.0694C26.319 37.177 26.2466 37.2515 26.1624 37.2515C26.1017 37.2515 26.0335 37.2164 25.9695 37.1599L21.2769 32.9076C21.0073 32.669 20.7666 32.5966 20.4493 32.5966H16.7837Z" fill="white"/>
<path d="M32.5124 34.8693C32.9962 35.1894 33.6482 35.0821 34.0068 34.5681C34.9513 33.3107 35.5115 31.5224 35.5115 29.6704C35.5115 27.8183 34.9513 26.0397 34.0068 24.7684C33.6482 24.2586 32.9962 24.1396 32.5124 24.4715C31.9413 24.846 31.8393 25.5353 32.287 26.1908C32.935 27.1114 33.3006 28.3637 33.3006 29.6704C33.3006 30.977 32.9233 32.2176 32.287 33.1499C31.8489 33.813 31.9413 34.4851 32.5124 34.8693Z" fill="white"/>
<path d="M37.1851 38.0016C37.7115 38.3368 38.3603 38.2081 38.7231 37.6763C40.2505 35.521 41.1337 32.6365 41.1337 29.6703C41.1337 26.7041 40.2601 23.8004 38.7231 21.6622C38.3603 21.1325 37.7115 21.0039 37.1851 21.339C36.6313 21.6868 36.5526 22.3726 36.9599 22.9796C38.2077 24.7991 38.927 27.1953 38.927 29.6703C38.927 32.1453 38.1885 34.5202 36.9599 36.3589C36.5643 36.9659 36.6313 37.6538 37.1851 38.0016Z" fill="white"/>
<path d="M41.8957 41.173C42.4017 41.5123 43.0856 41.3635 43.4484 40.8062C45.5161 37.7232 46.7507 33.8834 46.7507 29.6771C46.7507 25.4633 45.4872 21.6406 43.4484 18.5501C43.0856 17.9811 42.4017 17.844 41.8957 18.1834C41.3428 18.5387 41.2652 19.2181 41.647 19.8209C43.4423 22.5488 44.5591 25.9344 44.5591 29.6771C44.5591 33.4102 43.4423 36.8171 41.647 39.5354C41.2652 40.1382 41.3428 40.8155 41.8957 41.173Z" fill="white"/>
</svg>
