<svg width="60" height="60" viewBox="0 0 60 60" fill="none" xmlns="http://www.w3.org/2000/svg">
<rect width="60" height="60" rx="30" fill="#873D8F"/>
<path d="M15 40.1413C15 42.0746 15.9473 43.0433 17.8828 43.0433H34.2386C36.1624 43.0433 37.1193 42.0746 37.1193 40.1413V19.9116C37.1193 17.9762 36.1624 17 34.2386 17H31.7941C29.8683 17 28.9113 17.9762 28.9113 19.9116V24.5429C28.6873 24.4927 28.429 24.4543 28.1473 24.4543H23.2151C22.9237 24.4543 22.6687 24.4927 22.4372 24.5429V23.2168C22.4372 21.2834 21.4898 20.3052 19.564 20.3052H17.8828C15.9473 20.3052 15 21.2834 15 23.2168V40.1413ZM17.1977 39.8551V23.4933C17.1977 22.8505 17.5357 22.5029 18.2074 22.5029H19.2394C19.9111 22.5029 20.2394 22.8505 20.2394 23.4933V40.8456H18.2074C17.5357 40.8456 17.1977 40.4959 17.1977 39.8551ZM22.4372 40.8456V27.6425C22.4372 26.9996 22.7751 26.652 23.4468 26.652H27.9112C28.583 26.652 28.9113 26.9996 28.9113 27.6425V40.8456H22.4372ZM31.109 40.8456V20.1882C31.109 19.5453 31.447 19.1977 32.1187 19.1977H33.914C34.5933 19.1977 34.9216 19.5453 34.9216 20.1882V39.8551C34.9216 40.4959 34.5933 40.8456 33.914 40.8456H31.109ZM23.4129 28.8516C23.4129 29.2765 23.7344 29.6098 24.1807 29.6098H27.2177C27.6448 29.6098 27.9738 29.2765 27.9738 28.8516C27.9738 28.4321 27.6448 28.1009 27.2177 28.1009H24.1807C23.7323 28.1009 23.4129 28.4321 23.4129 28.8516ZM23.4129 38.6481C23.4129 39.0751 23.7323 39.4063 24.1807 39.4063H27.2177C27.6448 39.4063 27.9738 39.0751 27.9738 38.6481C27.9738 38.2285 27.6448 37.8952 27.2177 37.8952H24.1807C23.7344 37.8952 23.4129 38.2285 23.4129 38.6481ZM37.769 40.5137C37.9938 42.4257 39.0295 43.3252 40.9511 43.0812L42.3576 42.9109C44.2793 42.6669 45.0998 41.6312 44.8943 39.7191L42.9925 22.6025C42.7795 20.6905 41.7321 19.7813 39.8104 20.0349L38.4061 20.2053C36.4727 20.4589 35.6426 21.4829 35.8577 23.397L37.769 40.5137ZM39.9211 39.9891L38.0777 23.4427C38.0041 22.8019 38.2973 22.4405 38.969 22.3477L39.7263 22.2549C40.398 22.1621 40.769 22.4841 40.8426 23.1174L42.686 39.6638C42.7596 40.3121 42.4643 40.666 41.8022 40.7588L41.0257 40.8613C40.3699 40.9541 39.9947 40.6417 39.9211 39.9891Z" fill="white"/>
</svg>
