<svg width="15" height="15" viewBox="0 0 15 15" fill="none" xmlns="http://www.w3.org/2000/svg">
<g clip-path="url(#clip0_1159_23545)">
<path d="M8.49992 4.49972C8.49992 3.49972 8.99992 3.49972 9.49992 3.49972H10.0999C10.2001 3.50106 10.2995 3.48232 10.3923 3.4446C10.4852 3.40689 10.5695 3.35096 10.6403 3.28011C10.7112 3.20927 10.7671 3.12495 10.8048 3.03214C10.8425 2.93932 10.8613 2.83989 10.8599 2.73972V1.79972C10.8599 1.69906 10.8399 1.59941 10.8011 1.50655C10.7623 1.41368 10.7054 1.32945 10.6338 1.25875C10.5622 1.18804 10.4772 1.13227 10.3838 1.09467C10.2905 1.05707 10.1906 1.03839 10.0899 1.03972L8.66992 1.01972C8.25645 1.00372 7.84443 1.07764 7.46231 1.23636C7.08018 1.39508 6.73705 1.63483 6.45659 1.93906C6.17613 2.24329 5.96502 2.60475 5.83784 2.9985C5.71065 3.39225 5.67042 3.80891 5.71992 4.21972V5.66972H4.92992C4.72836 5.66972 4.53505 5.74979 4.39252 5.89231C4.24999 6.03484 4.16992 6.22815 4.16992 6.42972V7.36972C4.16992 7.57128 4.24999 7.76459 4.39252 7.90712C4.53505 8.04964 4.72836 8.12972 4.92992 8.12972H5.71992V13.4997C5.71992 13.6323 5.7726 13.7595 5.86637 13.8533C5.96014 13.947 6.08731 13.9997 6.21992 13.9997H8.02992C8.15726 13.9921 8.27686 13.936 8.36424 13.8431C8.45161 13.7501 8.50015 13.6273 8.49992 13.4997V8.12972H9.37992C9.58149 8.12972 9.7748 8.04964 9.91732 7.90712C10.0599 7.76459 10.1399 7.57128 10.1399 7.36972V6.42972C10.1399 6.22815 10.0599 6.03484 9.91732 5.89231C9.7748 5.74979 9.58149 5.66972 9.37992 5.66972H8.49992V4.49972Z" stroke="#000001" stroke-linecap="round" stroke-linejoin="round"/>
</g>
<defs>
<clipPath id="clip0_1159_23545">
<rect width="14" height="14" fill="white" transform="translate(0.5 0.5)"/>
</clipPath>
</defs>
</svg>
