<svg width="15" height="15" viewBox="0 0 15 15" fill="none" xmlns="http://www.w3.org/2000/svg">
<g clip-path="url(#clip0_1159_23549)">
<path d="M4.03969 2.20969C4.0424 2.55902 3.90757 2.89539 3.66432 3.14612C3.42107 3.39686 3.08894 3.54182 2.73969 3.54969C2.39116 3.5369 2.06087 3.39071 1.81706 3.14132C1.57326 2.89193 1.43458 2.55841 1.42969 2.20969C1.44484 1.86992 1.58862 1.54863 1.83187 1.31095C2.07513 1.07326 2.39966 0.936964 2.73969 0.929688C3.07872 0.9371 3.40211 1.07373 3.64375 1.31166C3.88539 1.54958 4.02702 1.87081 4.03969 2.20969ZM1.56969 5.92969C1.56969 5.15969 2.05969 5.27969 2.73969 5.27969C3.41969 5.27969 3.89969 5.15969 3.89969 5.92969V13.4297C3.89969 14.2097 3.40969 14.0497 2.73969 14.0497C2.06969 14.0497 1.56969 14.2097 1.56969 13.4297V5.92969Z" stroke="#000001" stroke-linecap="round" stroke-linejoin="round"/>
<path d="M5.91992 5.92898C5.91992 5.49898 6.07992 5.33898 6.32992 5.28898C6.57992 5.23898 7.43992 5.28898 7.73992 5.28898C8.03992 5.28898 8.15992 5.77898 8.14992 6.14898C8.40654 5.80458 8.74724 5.53178 9.13944 5.3567C9.53163 5.18161 9.96219 5.11009 10.3899 5.14898C10.8099 5.12331 11.2307 5.18628 11.6248 5.33381C12.0189 5.48135 12.3775 5.71014 12.6774 6.00533C12.9773 6.30052 13.2118 6.6555 13.3655 7.04721C13.5193 7.43893 13.5889 7.8586 13.5699 8.27898V13.399C13.5699 14.179 13.0899 14.019 12.4099 14.019C11.7299 14.019 11.2499 14.179 11.2499 13.399V9.39898C11.2675 9.19312 11.2406 8.98588 11.171 8.79134C11.1014 8.5968 10.9907 8.41952 10.8465 8.27153C10.7023 8.12355 10.528 8.00833 10.3353 7.93369C10.1426 7.85906 9.93618 7.82676 9.72992 7.83898C9.52462 7.83377 9.32056 7.87222 9.13124 7.9518C8.94192 8.03138 8.77166 8.15026 8.63174 8.30058C8.49182 8.4509 8.38542 8.62923 8.3196 8.82376C8.25378 9.01829 8.23003 9.22459 8.24992 9.42898V13.429C8.24992 14.209 7.75992 14.049 7.07992 14.049C6.39992 14.049 5.91992 14.209 5.91992 13.429V5.92898Z" stroke="#000001" stroke-linecap="round" stroke-linejoin="round"/>
</g>
<defs>
<clipPath id="clip0_1159_23549">
<rect width="14" height="14" fill="white" transform="translate(0.5 0.5)"/>
</clipPath>
</defs>
</svg>
