<svg width="15" height="15" viewBox="0 0 15 15" fill="none" xmlns="http://www.w3.org/2000/svg">
<g clip-path="url(#clip0_1159_23088)">
<path d="M2.63086 13.8789C3.45929 13.8789 4.13086 13.2073 4.13086 12.3789C4.13086 11.5505 3.45929 10.8789 2.63086 10.8789C1.80243 10.8789 1.13086 11.5505 1.13086 12.3789C1.13086 13.2073 1.80243 13.8789 2.63086 13.8789Z" stroke="#000001" stroke-linecap="round" stroke-linejoin="round"/>
<path d="M13.8809 12.6191C13.8809 11.1089 13.5834 9.61353 13.0055 8.21828C12.4275 6.82304 11.5805 5.55529 10.5126 4.48741C9.44471 3.41954 8.17696 2.57246 6.78172 1.99453C5.38647 1.4166 3.89106 1.11914 2.38086 1.11914" stroke="#000001" stroke-linecap="round" stroke-linejoin="round"/>
<path d="M2.62109 5.87891C3.47469 5.87891 4.31992 6.04703 5.10854 6.37369C5.89715 6.70034 6.61371 7.17913 7.21729 7.78271C7.82087 8.38629 8.29966 9.10285 8.62631 9.89146C8.95297 10.6801 9.12109 11.5253 9.12109 12.3789" stroke="#000001" stroke-linecap="round" stroke-linejoin="round"/>
</g>
<defs>
<clipPath id="clip0_1159_23088">
<rect width="14" height="14" fill="white" transform="translate(0.5 0.5)"/>
</clipPath>
</defs>
</svg>
