<svg width="86" height="85" viewBox="0 0 86 85" fill="none" xmlns="http://www.w3.org/2000/svg">
<rect width="86" height="85" rx="7" fill="#C8B4E4"/>
<path d="M57.9588 37.4292V35.8743C57.9588 27.3369 51.0379 20.416 42.5005 20.416C33.9631 20.416 27.0422 27.3369 27.0422 35.8743V37.4292C27.0422 39.2953 26.4898 41.1195 25.4547 42.6722L22.9182 46.4769C20.6014 49.9522 22.3701 54.6759 26.3997 55.7749C36.941 58.6498 48.0599 58.6498 58.6013 55.7749C62.6309 54.6759 64.3996 49.9522 62.0827 46.4769L59.5463 42.6722C58.5112 41.1195 57.9588 39.2953 57.9588 37.4292Z" stroke="white" stroke-width="1.5"/>
<path d="M32.5625 57.958C34.009 61.8177 37.9121 64.583 42.5 64.583C47.0879 64.583 50.991 61.8177 52.4375 57.958" stroke="white" stroke-width="1.5" stroke-linecap="round"/>
<path d="M42.5 29.25V38.0833" stroke="white" stroke-width="1.5" stroke-linecap="round"/>
</svg>
