<svg width="87" height="86" viewBox="0 0 87 86" fill="none" xmlns="http://www.w3.org/2000/svg">
<rect x="0.765625" y="0.0449219" width="85.7528" height="85.7528" rx="7" fill="#66769D"/>
<path d="M49.2577 53.4028C48.0719 53.898 46.7995 54.1524 45.5145 54.1515C42.6611 54.0251 39.9745 52.7716 38.0445 50.6662C36.1145 48.5608 35.099 45.7755 35.2208 42.9219C35.099 40.0683 36.1145 37.2831 38.0445 35.1776C39.9745 33.0722 42.6611 31.8187 45.5145 31.6924C46.5563 31.6989 47.5912 31.863 48.5839 32.179" stroke="white" stroke-width="1.3" stroke-linecap="round" stroke-linejoin="round"/>
<path d="M30.543 39.1787H41.7725" stroke="white" stroke-width="1.3" stroke-linecap="round" stroke-linejoin="round"/>
<path d="M30.543 46.665H41.7725" stroke="white" stroke-width="1.3" stroke-linecap="round" stroke-linejoin="round"/>
<path d="M43.6432 67.2521C57.0806 67.2521 67.9738 56.3589 67.9738 42.9215C67.9738 29.484 57.0806 18.5908 43.6432 18.5908C30.2057 18.5908 19.3125 29.484 19.3125 42.9215C19.3125 56.3589 30.2057 67.2521 43.6432 67.2521Z" stroke="white" stroke-width="1.3" stroke-linecap="round" stroke-linejoin="round"/>
</svg>
