<svg width="85" height="85" viewBox="0 0 85 85" fill="none" xmlns="http://www.w3.org/2000/svg">
<rect width="85" height="85" rx="7" fill="#F5D575"/>
<path d="M64.1425 42.499C64.1425 45.3413 63.5827 48.1557 62.495 50.7816C61.4073 53.4075 59.8131 55.7935 57.8033 57.8033C55.7935 59.8131 53.4075 61.4073 50.7816 62.495C48.1557 63.5827 45.3413 64.1425 42.499 64.1425C39.6567 64.1425 36.8423 63.5827 34.2164 62.495C31.5905 61.4073 29.2045 59.8131 27.1947 57.8033C25.1849 55.7935 23.5907 53.4075 22.503 50.7816C21.4153 48.1557 20.8555 45.3413 20.8555 42.499C20.8555 39.6567 21.4153 36.8423 22.503 34.2164C23.5907 31.5905 25.1849 29.2045 27.1947 27.1947C29.2045 25.1849 31.5905 23.5907 34.2164 22.503C36.8423 21.4153 39.6567 20.8555 42.499 20.8555C45.3413 20.8555 48.1557 21.4153 50.7816 22.503C53.4075 23.5907 55.7935 25.1849 57.8033 27.1947C59.8131 29.2045 61.4073 31.5905 62.495 34.2164C63.5827 36.8423 64.1425 39.6567 64.1425 42.499L64.1425 42.499Z" stroke="white" stroke-width="1.5"/>
<path d="M51.1586 42.499C51.1586 45.3413 50.9346 48.1557 50.4996 50.7816C50.0645 53.4075 49.4268 55.7935 48.6229 57.8033C47.819 59.8131 46.8646 61.4073 45.8142 62.495C44.7638 63.5827 43.6381 64.1425 42.5012 64.1425C41.3643 64.1425 40.2385 63.5827 39.1881 62.495C38.1377 61.4073 37.1834 59.8131 36.3794 57.8033C35.5755 55.7935 34.9378 53.4075 34.5028 50.7816C34.0677 48.1557 33.8437 45.3413 33.8438 42.499C33.8438 39.6567 34.0677 36.8423 34.5028 34.2164C34.9378 31.5905 35.5755 29.2045 36.3794 27.1947C37.1834 25.1849 38.1377 23.5907 39.1881 22.503C40.2385 21.4153 41.3643 20.8555 42.5012 20.8555C43.6381 20.8555 44.7638 21.4153 45.8142 22.503C46.8646 23.5907 47.819 25.1849 48.6229 27.1947C49.4268 29.2045 50.0645 31.5905 50.4996 34.2164C50.9346 36.8423 51.1586 39.6567 51.1586 42.499L51.1586 42.499Z" stroke="white" stroke-width="1.5"/>
<path d="M20.8555 42.5H64.1425" stroke="white" stroke-width="1.5" stroke-linecap="round"/>
</svg>
